<svg width="422" height="78.101" viewBox="0 0 422 78.101" xmlns="http://www.w3.org/2000/svg"><g id="svgGroup" stroke-linecap="round" fill-rule="evenodd" font-size="9pt" stroke="#1877F2" stroke-width="1mm" fill="#1877F2"><path d="M 190.9 44.7 L 190.9 77.2 L 179.6 77.2 L 179.6 46.4 A 23.736 23.736 0 0 0 179.22 42.013 Q 178.755 39.54 177.718 37.599 A 11.934 11.934 0 0 0 175.9 35.05 A 12.201 12.201 0 0 0 169.009 31.379 A 17.668 17.668 0 0 0 165.8 31.1 A 16.733 16.733 0 0 0 161.394 31.65 A 12.166 12.166 0 0 0 155.65 35.05 A 12.766 12.766 0 0 0 152.724 40.221 Q 152.119 42.211 151.958 44.611 A 26.78 26.78 0 0 0 151.9 46.4 L 151.9 77.2 L 140.5 77.2 L 140.5 22.1 L 151.9 22.1 L 151.9 28.4 A 18.598 18.598 0 0 1 158.117 23.534 A 21.975 21.975 0 0 1 159.05 23.1 Q 163.4 21.2 168.3 21.2 A 26.83 26.83 0 0 1 175.185 22.054 A 22.765 22.765 0 0 1 179.95 23.9 Q 185.1 26.6 188 31.9 Q 190.86 37.128 190.899 44.495 A 38.565 38.565 0 0 1 190.9 44.7 Z M 354.7 44.7 L 354.7 77.2 L 343.4 77.2 L 343.4 46.4 A 23.736 23.736 0 0 0 343.02 42.013 Q 342.555 39.54 341.518 37.599 A 11.934 11.934 0 0 0 339.7 35.05 A 12.201 12.201 0 0 0 332.809 31.379 A 17.668 17.668 0 0 0 329.6 31.1 A 16.733 16.733 0 0 0 325.194 31.65 A 12.166 12.166 0 0 0 319.45 35.05 A 12.766 12.766 0 0 0 316.524 40.221 Q 315.919 42.211 315.758 44.611 A 26.78 26.78 0 0 0 315.7 46.4 L 315.7 77.2 L 304.3 77.2 L 304.3 22.1 L 315.7 22.1 L 315.7 28.4 A 18.598 18.598 0 0 1 321.917 23.534 A 21.975 21.975 0 0 1 322.85 23.1 Q 327.2 21.2 332.1 21.2 A 26.83 26.83 0 0 1 338.985 22.054 A 22.765 22.765 0 0 1 343.75 23.9 Q 348.9 26.6 351.8 31.9 Q 354.66 37.128 354.699 44.495 A 38.565 38.565 0 0 1 354.7 44.7 Z M 292.7 53.9 L 250.6 53.9 Q 251.1 60.5 255.5 64.5 A 15.262 15.262 0 0 0 265.312 68.476 A 19.76 19.76 0 0 0 266.3 68.5 A 17.017 17.017 0 0 0 271.581 67.729 Q 276.702 66.064 279.3 60.8 L 291.6 60.8 Q 289.1 68.4 282.55 73.25 A 24.286 24.286 0 0 1 272.326 77.578 A 33.344 33.344 0 0 1 266.3 78.1 Q 258.4 78.1 252.15 74.55 Q 245.9 71 242.35 64.55 A 28.462 28.462 0 0 1 239.147 54.712 A 36.558 36.558 0 0 1 238.8 49.6 A 35.497 35.497 0 0 1 239.649 41.671 A 28.086 28.086 0 0 1 242.25 34.65 Q 245.7 28.2 251.95 24.7 A 27.477 27.477 0 0 1 262.336 21.422 A 34.532 34.532 0 0 1 266.3 21.2 A 30.544 30.544 0 0 1 274.43 22.246 A 25.926 25.926 0 0 1 280.2 24.6 Q 286.3 28 289.7 34.15 A 27.164 27.164 0 0 1 292.831 43.946 A 34.315 34.315 0 0 1 293.1 48.3 Q 293.1 51.4 292.7 53.9 Z M 410.5 29.8 L 410.5 3.2 L 422 3.2 L 422 77.2 L 410.5 77.2 L 410.5 68.9 A 20.054 20.054 0 0 1 405.5 73.833 A 25.392 25.392 0 0 1 402.75 75.5 A 22.597 22.597 0 0 1 395.072 77.871 A 28.624 28.624 0 0 1 391.4 78.1 Q 384.2 78.1 378.25 74.45 A 25.649 25.649 0 0 1 369.096 64.707 A 30.459 30.459 0 0 1 368.85 64.25 Q 365.4 57.7 365.4 49.4 A 34.025 34.025 0 0 1 366.317 41.346 A 27.749 27.749 0 0 1 368.85 34.7 Q 372.3 28.3 378.25 24.75 A 25.321 25.321 0 0 1 391.272 21.201 A 29.89 29.89 0 0 1 391.5 21.2 A 25.656 25.656 0 0 1 401.493 23.265 A 29.6 29.6 0 0 1 402.15 23.55 Q 407.4 25.9 410.5 29.8 Z M 28.2 22.1 L 28.2 31.4 L 18 31.4 L 18 77.2 L 6.5 77.2 L 6.5 31.4 L 0 31.4 L 0 22.1 L 6.5 22.1 L 6.5 18.2 Q 6.5 12.085 8.593 8.103 A 12.684 12.684 0 0 1 11.55 4.35 A 15.317 15.317 0 0 1 16.373 1.615 Q 20.819 0 27.4 0 L 27.4 9.5 A 22.052 22.052 0 0 0 24.994 9.622 Q 22.397 9.908 20.868 10.866 A 5.109 5.109 0 0 0 20.1 11.45 Q 18.08 13.326 18.003 17.838 A 21.207 21.207 0 0 0 18 18.2 L 18 22.1 L 28.2 22.1 Z M 232.1 31.4 L 218.7 31.4 L 218.7 61.9 A 10.438 10.438 0 0 0 218.813 63.495 Q 218.94 64.311 219.208 64.956 A 3.935 3.935 0 0 0 220.15 66.35 A 4.113 4.113 0 0 0 221.457 67.146 Q 222.666 67.624 224.503 67.69 A 16.793 16.793 0 0 0 225.1 67.7 L 232.1 67.7 L 232.1 77.2 L 223.1 77.2 A 26.492 26.492 0 0 1 218.639 76.848 Q 216.176 76.427 214.218 75.5 A 12.492 12.492 0 0 1 211.3 73.6 Q 207.2 70 207.2 61.9 L 207.2 31.4 L 200.7 31.4 L 200.7 22.1 L 207.2 22.1 L 207.2 8.4 L 218.7 8.4 L 218.7 22.1 L 232.1 22.1 L 232.1 31.4 Z M 91.115 76.607 A 29.497 29.497 0 0 0 100.6 78.1 A 34.849 34.849 0 0 0 101.154 78.096 A 29.708 29.708 0 0 0 115.05 74.55 Q 121.6 71 125.4 64.5 Q 129.2 58 129.2 49.6 A 35.357 35.357 0 0 0 128.997 45.767 A 28.312 28.312 0 0 0 125.5 34.7 Q 121.8 28.2 115.4 24.7 A 27.754 27.754 0 0 0 110.606 22.636 A 30.738 30.738 0 0 0 101.1 21.2 A 34.455 34.455 0 0 0 99.148 21.255 A 28.792 28.792 0 0 0 86.8 24.7 Q 80.4 28.2 76.7 34.7 A 27.269 27.269 0 0 0 74.044 41.211 A 32.529 32.529 0 0 0 73 49.6 A 36.242 36.242 0 0 0 73.317 54.466 A 28.27 28.27 0 0 0 76.6 64.55 Q 80.2 71 86.5 74.55 A 26.865 26.865 0 0 0 91.115 76.607 Z M 66.2 21.2 L 66.2 33 L 63.3 33 Q 56.6 33 53.15 36.4 Q 49.7 39.8 49.7 48.2 L 49.7 77.2 L 38.3 77.2 L 38.3 22.1 L 49.7 22.1 L 49.7 30.1 Q 52.2 25.9 56.35 23.55 A 17.776 17.776 0 0 1 62.143 21.53 A 23.9 23.9 0 0 1 66.2 21.2 Z M 410.5 49.6 A 23.267 23.267 0 0 0 409.986 44.596 A 17.787 17.787 0 0 0 408.15 39.7 A 17.656 17.656 0 0 0 404.948 35.512 A 15.507 15.507 0 0 0 402 33.3 Q 398.2 31.1 393.8 31.1 Q 389.4 31.1 385.6 33.25 A 15.826 15.826 0 0 0 380.22 38.302 A 19.285 19.285 0 0 0 379.45 39.55 A 17.776 17.776 0 0 0 377.43 45.343 A 23.9 23.9 0 0 0 377.1 49.4 A 23.396 23.396 0 0 0 377.669 54.672 A 18.466 18.466 0 0 0 379.45 59.4 A 17.81 17.81 0 0 0 382.618 63.638 A 15.559 15.559 0 0 0 385.65 65.95 Q 389.5 68.2 393.8 68.2 Q 398.2 68.2 402 66 A 15.896 15.896 0 0 0 407.218 61.072 A 19.638 19.638 0 0 0 408.15 59.55 Q 410.5 55.3 410.5 49.6 Z M 100.6 68.2 Q 105 68.2 108.85 66.1 A 15.541 15.541 0 0 0 114.232 61.182 A 19.224 19.224 0 0 0 115.1 59.8 Q 117.5 55.6 117.5 49.6 A 26.078 26.078 0 0 0 117.12 45.03 Q 116.644 42.352 115.568 40.156 A 15.705 15.705 0 0 0 115.2 39.45 A 16.616 16.616 0 0 0 112.064 35.36 A 14.662 14.662 0 0 0 109.1 33.2 Q 105.3 31.1 100.9 31.1 Q 96.5 31.1 92.75 33.2 Q 89 35.3 86.8 39.45 Q 84.6 43.6 84.6 49.6 A 27.958 27.958 0 0 0 85.09 55.005 Q 85.716 58.179 87.142 60.641 A 14.733 14.733 0 0 0 89.15 63.35 A 14.94 14.94 0 0 0 99.958 68.189 A 19.175 19.175 0 0 0 100.6 68.2 Z M 250.7 44.7 L 281.2 44.7 A 14.833 14.833 0 0 0 280.365 39.87 A 12.478 12.478 0 0 0 276.7 34.6 A 15.525 15.525 0 0 0 267.972 30.912 A 20.529 20.529 0 0 0 265.8 30.8 Q 259.9 30.8 255.7 34.55 A 14.857 14.857 0 0 0 251.237 41.936 A 20.113 20.113 0 0 0 250.7 44.7 Z" vector-effect="non-scaling-stroke"/></g></svg>